<svg width="52" height="52" viewBox="0 0 52 52" fill="none" xmlns="http://www.w3.org/2000/svg">
<circle cx="26" cy="26" r="26" fill="#00B8C4"/>
<path d="M32.8943 35.985H32.7317H32.72V35.485C32.5333 35.66 32.3117 35.73 32.125 35.7183C31.95 35.7067 31.775 35.6833 31.5883 35.6483M32.8943 35.985C32.6464 36.1558 32.3625 36.2342 32.0938 36.2174L32.0917 36.2172C31.8953 36.2041 31.7016 36.1782 31.4998 36.1404M32.8943 35.985H32.9235L33.0661 35.8566C33.5481 35.4228 33.8033 34.6998 33.8033 33.9917C33.8033 33.7077 33.7607 33.4409 33.6918 33.1928L33.6884 33.1806L33.6843 33.1686C33.6204 32.9766 33.5348 32.7569 33.3973 32.543L33.375 32.5083L33.3473 32.4777C32.2479 31.2639 31.2495 29.933 30.3643 28.5535C29.7921 27.661 29.2758 26.7318 28.8039 25.7881L28.7879 25.756L28.7675 25.7266C28.3436 25.1157 27.8402 24.621 27.2904 24.3596C26.3289 23.8896 25.4891 23.9004 24.7937 24.2201C24.1239 24.528 23.6563 25.0911 23.3453 25.5988L23.3347 25.6162L23.3255 25.6343C22.8306 26.6126 22.2675 27.6121 21.6601 28.5519L21.6597 28.5524C20.7638 29.9422 19.7416 31.286 18.628 32.5259L18.5983 32.559L18.5749 32.5968C18.3667 32.9332 18.22 33.4593 18.22 33.9917C18.22 34.692 18.4771 35.4082 18.9497 35.8498C19.2097 36.0936 19.5549 36.2562 19.9323 36.2163M32.8943 35.985L19.9323 36.2163M31.4998 36.1404C31.501 36.1407 31.5022 36.1409 31.5034 36.1411L31.5883 35.6483M31.4998 36.1404C31.4986 36.1402 31.4974 36.14 31.4962 36.1398L31.5883 35.6483M31.4998 36.1404C30.0344 35.8871 29.2364 35.3195 28.5204 34.8064L28.5198 34.806C27.7771 34.2722 27.1102 33.8033 26 33.8033C24.8898 33.8033 24.2229 34.2722 23.4802 34.806L23.4796 34.8064L23.4571 34.8225C22.7508 35.3288 21.9517 35.9016 20.4981 36.1408M31.5883 35.6483C30.235 35.415 29.5117 34.9017 28.8117 34.4L20.5038 36.1398C20.5019 36.1401 20.5 36.1405 20.4981 36.1408M20.4981 36.1408C20.3013 36.1775 20.1126 36.203 19.9323 36.2163M20.4981 36.1408L19.9323 36.2163M33.9848 32.0636L33.9862 32.0627C34.1633 32.3437 34.2991 32.6399 34.3865 32.9411C34.4785 33.2578 34.53 33.6076 34.53 33.9567C34.53 34.9347 34.1541 35.8297 33.5515 36.3739L33.5512 36.3742C33.1453 36.7415 32.6558 36.9333 32.1717 36.9333H32.1713H32.1708H32.1704H32.17H32.1696H32.1692H32.1688H32.1684H32.168H32.1676H32.1671H32.1667H32.1663H32.1659H32.1655H32.1651H32.1647H32.1642H32.1638H32.1634H32.163H32.1626H32.1622H32.1617H32.1613H32.1609H32.1605H32.1601H32.1597H32.1592H32.1588H32.1584H32.158H32.1576H32.1572H32.1567H32.1563H32.1559H32.1555H32.1551H32.1546H32.1542H32.1538H32.1534H32.153H32.1525H32.1521H32.1517H32.1513H32.1508H32.1504H32.15H32.1496H32.1492H32.1487H32.1483H32.1479H32.1475H32.147H32.1466H32.1462H32.1458H32.1453H32.1449H32.1445H32.1441H32.1436H32.1432H32.1428H32.1424H32.1419H32.1415H32.1411H32.1407H32.1402H32.1398H32.1394H32.1389H32.1385H32.1381H32.1377H32.1372H32.1368H32.1364H32.1359H32.1355H32.1351H32.1347H32.1342H32.1338H32.1334H32.1329H32.1325H32.1321H32.1316H32.1312H32.1308H32.1304H32.1299H32.1295H32.1291H32.1286H32.1282H32.1278H32.1273H32.1269H32.1265H32.126H32.1256H32.1252H32.1247H32.1243H32.1239H32.1234H32.123H32.1226H32.1221H32.1217H32.1213H32.1208H32.1204H32.12H32.1195H32.1191H32.1187H32.1182H32.1178H32.1173H32.1169H32.1165H32.116H32.1156H32.1152H32.1147H32.1143H32.1139H32.1134H32.113H32.1125H32.1121H32.1117H32.1112H32.1108H32.1104H32.1099H32.1095H32.109H32.1086H32.1082H32.1077H32.1073H32.1068H32.1064H32.106H32.1055H32.1051H32.1047H32.1042H32.1038H32.1033H32.1029H32.1025H32.102H32.1016H32.1011H32.1007H32.1003H32.0998H32.0994H32.0989H32.0985H32.0981H32.0976H32.0972H32.0967H32.0963H32.0958H32.0954H32.095H32.0945H32.0941H32.0936H32.0932H32.0928H32.0923H32.0919H32.0914H32.091H32.0906H32.0901H32.0897H32.0892H32.0888H32.0883H32.0879H32.0875H32.087H32.0866H32.0861H32.0857H32.0852H32.0848H32.0844H32.0839H32.0835H32.083H32.0826H32.0821H32.0817H32.0813H32.0808H32.0804H32.0799H32.0795H32.079H32.0786H32.0782H32.0777H32.0773H32.0768H32.0764H32.0759H32.0755H32.075H32.0746H32.0742H32.0737H32.0733H32.0728H32.0724H32.0719H32.0715H32.0711H32.0706H32.0702H32.0697H32.0693H32.0688H32.0684H32.0679H32.0675H32.0671H32.0666H32.0662H32.0657H32.0653H32.0648H32.0644H32.0639H32.0635H32.0631H32.0626H32.0622H32.0617H32.0613H32.0608H32.0604H32.0599H32.0595H32.0591H32.0586H32.0582H32.0577H32.0573H32.0568H32.0564H32.0559H32.0555H32.0551H32.0546H32.0542H32.0537H32.0533H32.0528H32.0524H32.0519H32.0515H32.0511H32.0506H32.0502H32.0497H32.0493H32.0488H32.0484H32.048H32.0475H32.0471H32.0466H32.0462H32.0457H32.0453H32.0448H32.0444H32.044H32.0435H32.0431H32.0426H32.0422H32.0417H32.0413H32.0409H32.0404H32.04H32.0395H32.0391H32.0386H32.0382H32.0378H32.0373H32.0369H32.0364H32.036H32.0355H32.0351H32.0347H32.0342H32.0338H32.0333H32.0329H32.0324H32.032H32.0316H32.0311H32.0307H32.0302H32.0298H32.0293H32.0289H32.0285H32.028H32.0276H32.0271H32.0267H32.0263H32.0258H32.0254H32.0249H32.0245H32.0241H32.0236H32.0232H32.0227H32.0223H32.0218H32.0214H32.021H32.0205H32.0201H32.0196H32.0192H32.0188H32.0183H32.0179H32.0175H32.017H32.0166H32.0161H32.0157H32.0153H32.0148H32.0144H32.0139H32.0135H32.0131H32.0126H32.0122H32.0117H32.0113H32.0109H32.0104H32.01H32.0096H32.0091H32.0087H32.0082H32.0078H32.0074H32.0069H32.0065H32.0061H32.0056H32.0052H32.0048H32.0043H32.0039H32.0035H32.003H32.0026H32.0021H32.0017H32.0013H32.0008H32.0004H32H31.9995H31.9991H31.9987H31.9982H31.9978H31.9974H31.9969H31.9965H31.9961H31.9956H31.9952H31.9948H31.9943H31.9939H31.9935H31.993H31.9926H31.9922H31.9917H31.9913H31.9909H31.9905H31.99H31.9896H31.9892H31.9887H31.9883H31.9879H31.9874H31.987H31.9866H31.9861H31.9857H31.9853H31.9849H31.9844H31.984H31.9836H31.9831H31.9827H31.9823H31.9819H31.9814H31.981H31.9806H31.9802H31.9797H31.9793H31.9789H31.9785H31.978H31.9776H31.9772H31.9768H31.9763H31.9759H31.9755H31.9751H31.9746H31.9742H31.9738H31.9734H31.9729H31.9725H31.9721H31.9717H31.9712H31.9708H31.9704H31.97H31.9696H31.9691H31.9687H31.9683H31.9679H31.9674H31.967H31.9666H31.9662H31.9658H31.9653H31.9649H31.9645H31.9641H31.9637C31.777 36.9227 31.5854 36.8929 31.3651 36.8581C29.7423 36.5872 28.8523 35.9496 28.0886 35.4025L28.0791 35.3956L28.0762 35.3935L28.0728 35.391C27.44 34.9309 26.8889 34.53 25.9883 34.53C25.0878 34.53 24.5366 34.9309 23.9039 35.391L23.9005 35.3935L23.8976 35.3956L23.888 35.4025C23.1244 35.9496 22.2344 36.5872 20.6116 36.8581C20.4249 36.8875 20.2377 36.9082 20.0457 36.9295C20.0257 36.9317 20.0057 36.9339 19.9856 36.9361C19.4515 36.9898 18.8909 36.801 18.4393 36.3879C17.8434 35.8405 17.4583 34.9424 17.4583 33.9683C17.4583 33.2682 17.6586 32.5965 18.0078 32.0704C19.1572 30.7777 20.1458 29.4822 21.0182 28.1265C21.6131 27.2103 22.1583 26.2379 22.6545 25.2574L22.6711 25.2246L22.6731 25.2186L22.6827 25.204L22.6878 25.1963L22.6927 25.1884C23.1522 24.4403 23.8229 23.7904 24.6425 23.4631C25.4467 23.1419 26.438 23.1126 27.6024 23.6735C28.2501 23.9873 28.8615 24.5344 29.4052 25.336C29.4061 25.3378 29.4072 25.34 29.4086 25.3428L29.4101 25.3458C29.4163 25.3582 29.4292 25.3842 29.4474 25.4147C29.9071 26.344 30.4142 27.2513 30.9805 28.1362L30.9812 28.1372C31.8591 29.5015 32.8555 30.8064 33.947 32.0166L33.9557 32.0261L33.9582 32.0286C33.9598 32.0307 33.9635 32.0353 33.9691 32.043C33.9738 32.0494 33.9781 32.0555 33.9811 32.0598L33.984 32.064L33.984 32.0641L33.9848 32.0636Z" fill="white" stroke="white"/>
<path d="M20.6333 22.2317C21.03 22.3833 21.4267 22.465 21.8233 22.465C22.325 22.465 22.815 22.3367 23.2467 22.0917C24.005 21.6483 24.53 20.855 24.6817 19.8983C24.8217 19 24.6233 18.0433 24.1333 17.2033C23.0833 15.395 20.9833 14.6367 19.455 15.5233C17.9267 16.41 17.53 18.6033 18.5683 20.4117C19.0583 21.2633 19.7933 21.905 20.6333 22.2317ZM20.33 17.04C20.4933 16.9467 20.68 16.9 20.8667 16.9C21.485 16.9 22.185 17.355 22.605 18.0783C22.8967 18.58 23.0133 19.14 22.9317 19.6417C22.8967 19.8867 22.7683 20.3417 22.36 20.575C21.9517 20.8083 21.4967 20.6917 21.2633 20.5983C20.7967 20.4117 20.365 20.0267 20.085 19.5367C19.5367 18.58 19.6417 17.4367 20.33 17.04Z" fill="white"/>
<path d="M28.205 22.0917C28.6367 22.3483 29.1267 22.465 29.6167 22.465C30.8533 22.465 32.1367 21.7067 32.8833 20.4117C33.3733 19.56 33.56 18.6033 33.4317 17.7167C33.2917 16.76 32.7667 15.9667 31.9967 15.5233C31.2383 15.08 30.2817 15.0333 29.3833 15.3833C28.5433 15.71 27.8083 16.3633 27.3183 17.2033C26.2683 19.0117 26.665 21.205 28.205 22.0917ZM28.835 18.0783C29.1267 17.5767 29.5583 17.1917 30.0133 17.0167C30.1417 16.97 30.3517 16.9 30.5733 16.9C30.7483 16.9 30.935 16.935 31.11 17.04C31.5183 17.2733 31.6467 17.7283 31.6817 17.9733C31.7633 18.4633 31.635 19.035 31.355 19.5367C30.8067 20.4933 29.7567 20.9717 29.0683 20.575C28.38 20.1783 28.275 19.035 28.8233 18.0783H28.835Z" fill="white"/>
<path d="M36.1617 22.43C35.5317 22.0683 34.75 22.0217 34.015 22.3133C33.3383 22.5817 32.755 23.095 32.3583 23.7717C31.5183 25.23 31.845 27.015 33.105 27.7383C33.4667 27.9483 33.8633 28.0417 34.2717 28.0417C35.275 28.0417 36.3133 27.435 36.92 26.3967C37.76 24.9383 37.4333 23.1533 36.1733 22.43H36.1617ZM35.3917 25.5217C35.0417 26.1283 34.3767 26.455 33.98 26.2217C33.5717 25.9883 33.525 25.2533 33.875 24.6467C34.0617 24.32 34.3533 24.0633 34.6567 23.9467C34.7383 23.9117 34.855 23.8767 34.995 23.8767C35.0883 23.8767 35.1933 23.9 35.2867 23.9467C35.695 24.18 35.7417 24.915 35.3917 25.5217Z" fill="white"/>
<path d="M18.9883 27.7267C20.2367 27.0033 20.575 25.23 19.735 23.76C18.895 22.3017 17.18 21.695 15.9317 22.4183C14.6833 23.1417 14.345 24.915 15.185 26.385C15.78 27.4233 16.83 28.03 17.8217 28.03C18.23 28.03 18.6267 27.9367 18.9883 27.7267ZM16.7017 25.51C16.3517 24.9033 16.3983 24.1683 16.8067 23.935C16.9 23.8883 16.9933 23.865 17.11 23.865C17.495 23.865 17.95 24.1683 18.23 24.635C18.58 25.2417 18.5333 25.9767 18.125 26.21C17.7167 26.4433 17.0633 26.1167 16.7133 25.51H16.7017Z" fill="white"/>
</svg>
